<svg xmlns="http://www.w3.org/2000/svg" xmlns:xlink="http://www.w3.org/1999/xlink" contentStyleType="text/css" data-diagram-type="DESCRIPTION" height="930px" preserveAspectRatio="none" style="width:2145px;height:930px;background:#FFFFFF;" version="1.1" viewBox="0 0 2145 930" width="2145px" zoomAndPan="magnify"><defs/><g><!--cluster org.junit.jupiter--><g class="cluster" data-entity="org.junit.jupiter" data-source-line="6" data-uid="ent0002" id="cluster_org.junit.jupiter"><path d="M1236.5,152 L1340.1553,152 A3.75,3.75 0 0 1 1342.6553,154.5 L1349.6553,175.6094 L1903.5,175.6094 A2.5,2.5 0 0 1 1906,178.1094 L1906,519.5 A2.5,2.5 0 0 1 1903.5,522 L1236.5,522 A2.5,2.5 0 0 1 1234,519.5 L1234,154.5 A2.5,2.5 0 0 1 1236.5,152" fill="none" style="stroke:#000000;stroke-width:1.5;"/><line style="stroke:#000000;stroke-width:1.5;" x1="1234" x2="1349.6553" y1="175.6094" y2="175.6094"/><text fill="#000000" font-family="sans-serif" font-size="14" font-weight="bold" lengthAdjust="spacing" textLength="102.6553" x="1238" y="168.5332">org.junit.jupiter</text></g><!--cluster org.junit.vintage--><g class="cluster" data-entity="org.junit.vintage" data-source-line="14" data-uid="ent0008" id="cluster_org.junit.vintage"><path d="M968.5,314 L1078.3896,314 A3.75,3.75 0 0 1 1080.8896,316.5 L1087.8896,337.6094 L1157.5,337.6094 A2.5,2.5 0 0 1 1160,340.1094 L1160,411.5 A2.5,2.5 0 0 1 1157.5,414 L968.5,414 A2.5,2.5 0 0 1 966,411.5 L966,316.5 A2.5,2.5 0 0 1 968.5,314" fill="none" style="stroke:#000000;stroke-width:1.5;"/><line style="stroke:#000000;stroke-width:1.5;" x1="966" x2="1087.8896" y1="337.6094" y2="337.6094"/><text fill="#000000" font-family="sans-serif" font-size="14" font-weight="bold" lengthAdjust="spacing" textLength="108.8896" x="970" y="330.5332">org.junit.vintage</text></g><!--cluster org.junit.platform--><g class="cluster" data-entity="org.junit.platform" data-source-line="18" data-uid="ent0010" id="cluster_org.junit.platform"><path d="M31.5,6 L148.376,6 A3.75,3.75 0 0 1 150.876,8.5 L157.876,29.6094 L939.5,29.6094 A2.5,2.5 0 0 1 942,32.1094 L942,751.5 A2.5,2.5 0 0 1 939.5,754 L31.5,754 A2.5,2.5 0 0 1 29,751.5 L29,8.5 A2.5,2.5 0 0 1 31.5,6" fill="none" style="stroke:#000000;stroke-width:1.5;"/><line style="stroke:#000000;stroke-width:1.5;" x1="29" x2="157.876" y1="29.6094" y2="29.6094"/><text fill="#000000" font-family="sans-serif" font-size="14" font-weight="bold" lengthAdjust="spacing" textLength="115.876" x="33" y="22.5332">org.junit.platform</text></g><!--cluster JUnit 4--><g class="cluster" data-entity="JUnit 4" data-source-line="33" data-uid="ent0023" id="cluster_JUnit 4"><path d="M1135.5,546 L1183.1758,546 A3.75,3.75 0 0 1 1185.6758,548.5 L1192.6758,569.6094 L1258.5,569.6094 A2.5,2.5 0 0 1 1261,572.1094 L1261,643.5 A2.5,2.5 0 0 1 1258.5,646 L1135.5,646 A2.5,2.5 0 0 1 1133,643.5 L1133,548.5 A2.5,2.5 0 0 1 1135.5,546" fill="none" style="stroke:#000000;stroke-width:1.5;"/><line style="stroke:#000000;stroke-width:1.5;" x1="1133" x2="1192.6758" y1="569.6094" y2="569.6094"/><text fill="#000000" font-family="sans-serif" font-size="14" font-weight="bold" lengthAdjust="spacing" textLength="46.6758" x="1137" y="562.5332">JUnit 4</text></g><!--cluster org.opentest4j--><g class="cluster" data-entity="org.opentest4j" data-source-line="37" data-uid="ent0025" id="cluster_org.opentest4j"><path d="M620.5,823 L717.9551,823 A3.75,3.75 0 0 1 720.4551,825.5 L727.4551,846.6094 L753.5,846.6094 A2.5,2.5 0 0 1 756,849.1094 L756,920.5 A2.5,2.5 0 0 1 753.5,923 L620.5,923 A2.5,2.5 0 0 1 618,920.5 L618,825.5 A2.5,2.5 0 0 1 620.5,823" fill="none" style="stroke:#000000;stroke-width:1.5;"/><line style="stroke:#000000;stroke-width:1.5;" x1="618" x2="727.4551" y1="846.6094" y2="846.6094"/><text fill="#000000" font-family="sans-serif" font-size="14" font-weight="bold" lengthAdjust="spacing" textLength="96.4551" x="622" y="839.5332">org.opentest4j</text></g><!--cluster org.opentest4j.reporting--><g class="cluster" data-entity="org.opentest4j.reporting" data-source-line="41" data-uid="ent0027" id="cluster_org.opentest4j.reporting"><path d="M8.5,823 L171.2861,823 A3.75,3.75 0 0 1 173.7861,825.5 L180.7861,846.6094 L263.5,846.6094 A2.5,2.5 0 0 1 266,849.1094 L266,920.5 A2.5,2.5 0 0 1 263.5,923 L8.5,923 A2.5,2.5 0 0 1 6,920.5 L6,825.5 A2.5,2.5 0 0 1 8.5,823" fill="none" style="stroke:#000000;stroke-width:1.5;"/><line style="stroke:#000000;stroke-width:1.5;" x1="6" x2="180.7861" y1="846.6094" y2="846.6094"/><text fill="#000000" font-family="sans-serif" font-size="14" font-weight="bold" lengthAdjust="spacing" textLength="161.7861" x="10" y="839.5332">org.opentest4j.reporting</text></g><!--cluster org.apiguardian--><g class="cluster" data-entity="org.apiguardian" data-source-line="45" data-uid="ent0029" id="cluster_org.apiguardian"><path d="M1932.5,6 L2039.2861,6 A3.75,3.75 0 0 1 2041.7861,8.5 L2048.7861,29.6094 L2135.5,29.6094 A2.5,2.5 0 0 1 2138,32.1094 L2138,287.5 A2.5,2.5 0 0 1 2135.5,290 L1932.5,290 A2.5,2.5 0 0 1 1930,287.5 L1930,8.5 A2.5,2.5 0 0 1 1932.5,6" fill="none" style="stroke:#000000;stroke-width:1.5;"/><line style="stroke:#000000;stroke-width:1.5;" x1="1930" x2="2048.7861" y1="29.6094" y2="29.6094"/><text fill="#000000" font-family="sans-serif" font-size="14" font-weight="bold" lengthAdjust="spacing" textLength="105.7861" x="1934" y="22.5332">org.apiguardian</text></g><!--entity jupiter--><g class="entity" data-entity="jupiter" data-source-line="7" data-uid="ent0003" id="entity_jupiter"><rect fill="#F1F1F1" height="47.6094" rx="2.5" ry="2.5" style="stroke:#181818;stroke-width:0.5;" width="108.4756" x="1719" y="188"/><rect fill="#F1F1F1" height="10" style="stroke:#181818;stroke-width:0.5;" width="15" x="1807.4756" y="193"/><rect fill="#F1F1F1" height="2" style="stroke:#181818;stroke-width:0.5;" width="4" x="1805.4756" y="195"/><rect fill="#F1F1F1" height="2" style="stroke:#181818;stroke-width:0.5;" width="4" x="1805.4756" y="199"/><text fill="#000000" font-family="sans-serif" font-size="14" lengthAdjust="spacing" textLength="68.4756" x="1734" y="222.5332">junit-jupiter</text></g><!--entity jupiter_api--><g class="entity" data-entity="jupiter_api" data-source-line="8" data-uid="ent0004" id="entity_jupiter_api"><rect fill="#F1F1F1" height="47.6094" rx="2.5" ry="2.5" style="stroke:#181818;stroke-width:0.5;" width="131.8203" x="1442" y="458"/><rect fill="#F1F1F1" height="10" style="stroke:#181818;stroke-width:0.5;" width="15" x="1553.8203" y="463"/><rect fill="#F1F1F1" height="2" style="stroke:#181818;stroke-width:0.5;" width="4" x="1551.8203" y="465"/><rect fill="#F1F1F1" height="2" style="stroke:#181818;stroke-width:0.5;" width="4" x="1551.8203" y="469"/><text fill="#000000" font-family="sans-serif" font-size="14" lengthAdjust="spacing" textLength="91.8203" x="1457" y="492.5332">junit-jupiter-api</text></g><!--entity jupiter_engine--><g class="entity" data-entity="jupiter_engine" data-source-line="9" data-uid="ent0005" id="entity_jupiter_engine"><rect fill="#F1F1F1" height="47.6094" rx="2.5" ry="2.5" style="stroke:#181818;stroke-width:0.5;" width="155.1787" x="1250.5" y="350"/><rect fill="#F1F1F1" height="10" style="stroke:#181818;stroke-width:0.5;" width="15" x="1385.6787" y="355"/><rect fill="#F1F1F1" height="2" style="stroke:#181818;stroke-width:0.5;" width="4" x="1383.6787" y="357"/><rect fill="#F1F1F1" height="2" style="stroke:#181818;stroke-width:0.5;" width="4" x="1383.6787" y="361"/><text fill="#000000" font-family="sans-serif" font-size="14" lengthAdjust="spacing" textLength="115.1787" x="1265.5" y="384.5332">junit-jupiter-engine</text></g><!--entity jupiter_params--><g class="entity" data-entity="jupiter_params" data-source-line="10" data-uid="ent0006" id="entity_jupiter_params"><rect fill="#F1F1F1" height="47.6094" rx="2.5" ry="2.5" style="stroke:#181818;stroke-width:0.5;" width="159.8203" x="1693" y="350"/><rect fill="#F1F1F1" height="10" style="stroke:#181818;stroke-width:0.5;" width="15" x="1832.8203" y="355"/><rect fill="#F1F1F1" height="2" style="stroke:#181818;stroke-width:0.5;" width="4" x="1830.8203" y="357"/><rect fill="#F1F1F1" height="2" style="stroke:#181818;stroke-width:0.5;" width="4" x="1830.8203" y="361"/><text fill="#000000" font-family="sans-serif" font-size="14" lengthAdjust="spacing" textLength="119.8203" x="1708" y="384.5332">junit-jupiter-params</text></g><!--entity jupiter_migration_support--><g class="entity" data-entity="jupiter_migration_support" data-source-line="11" data-uid="ent0007" id="entity_jupiter_migration_support"><rect fill="#F1F1F1" height="47.6094" rx="2.5" ry="2.5" style="stroke:#181818;stroke-width:0.5;" width="217.4131" x="1440.5" y="350"/><rect fill="#F1F1F1" height="10" style="stroke:#181818;stroke-width:0.5;" width="15" x="1637.9131" y="355"/><rect fill="#F1F1F1" height="2" style="stroke:#181818;stroke-width:0.5;" width="4" x="1635.9131" y="357"/><rect fill="#F1F1F1" height="2" style="stroke:#181818;stroke-width:0.5;" width="4" x="1635.9131" y="361"/><text fill="#000000" font-family="sans-serif" font-size="14" lengthAdjust="spacing" textLength="177.4131" x="1455.5" y="384.5332">junit-jupiter-migrationsupport</text></g><!--entity vintage_engine--><g class="entity" data-entity="vintage_engine" data-source-line="15" data-uid="ent0009" id="entity_vintage_engine"><rect fill="#F1F1F1" height="47.6094" rx="2.5" ry="2.5" style="stroke:#181818;stroke-width:0.5;" width="162.1924" x="982" y="350"/><rect fill="#F1F1F1" height="10" style="stroke:#181818;stroke-width:0.5;" width="15" x="1124.1924" y="355"/><rect fill="#F1F1F1" height="2" style="stroke:#181818;stroke-width:0.5;" width="4" x="1122.1924" y="357"/><rect fill="#F1F1F1" height="2" style="stroke:#181818;stroke-width:0.5;" width="4" x="1122.1924" y="361"/><text fill="#000000" font-family="sans-serif" font-size="14" lengthAdjust="spacing" textLength="122.1924" x="997" y="384.5332">junit-vintage-engine</text></g><!--entity commons--><g class="entity" data-entity="commons" data-source-line="19" data-uid="ent0011" id="entity_commons"><rect fill="#F1F1F1" height="47.6094" rx="2.5" ry="2.5" style="stroke:#181818;stroke-width:0.5;" width="186.2617" x="740" y="690"/><rect fill="#F1F1F1" height="10" style="stroke:#181818;stroke-width:0.5;" width="15" x="906.2617" y="695"/><rect fill="#F1F1F1" height="2" style="stroke:#181818;stroke-width:0.5;" width="4" x="904.2617" y="697"/><rect fill="#F1F1F1" height="2" style="stroke:#181818;stroke-width:0.5;" width="4" x="904.2617" y="701"/><text fill="#000000" font-family="sans-serif" font-size="14" lengthAdjust="spacing" textLength="146.2617" x="755" y="724.5332">junit-platform-commons</text></g><!--entity console--><g class="entity" data-entity="console" data-source-line="20" data-uid="ent0012" id="entity_console"><rect fill="#F1F1F1" height="47.6094" rx="2.5" ry="2.5" style="stroke:#181818;stroke-width:0.5;" width="173.834" x="163" y="188"/><rect fill="#F1F1F1" height="10" style="stroke:#181818;stroke-width:0.5;" width="15" x="316.834" y="193"/><rect fill="#F1F1F1" height="2" style="stroke:#181818;stroke-width:0.5;" width="4" x="314.834" y="195"/><rect fill="#F1F1F1" height="2" style="stroke:#181818;stroke-width:0.5;" width="4" x="314.834" y="199"/><text fill="#000000" font-family="sans-serif" font-size="14" lengthAdjust="spacing" textLength="133.834" x="178" y="222.5332">junit-platform-console</text></g><!--entity engine--><g class="entity" data-entity="engine" data-source-line="21" data-uid="ent0013" id="entity_engine"><rect fill="#F1F1F1" height="47.6094" rx="2.5" ry="2.5" style="stroke:#181818;stroke-width:0.5;" width="167.6201" x="749" y="582"/><rect fill="#F1F1F1" height="10" style="stroke:#181818;stroke-width:0.5;" width="15" x="896.6201" y="587"/><rect fill="#F1F1F1" height="2" style="stroke:#181818;stroke-width:0.5;" width="4" x="894.6201" y="589"/><rect fill="#F1F1F1" height="2" style="stroke:#181818;stroke-width:0.5;" width="4" x="894.6201" y="593"/><text fill="#000000" font-family="sans-serif" font-size="14" lengthAdjust="spacing" textLength="127.6201" x="764" y="616.5332">junit-platform-engine</text></g><!--entity jfr--><g class="entity" data-entity="jfr" data-source-line="22" data-uid="ent0014" id="entity_jfr"><rect fill="#F1F1F1" height="47.6094" rx="2.5" ry="2.5" style="stroke:#181818;stroke-width:0.5;" width="137.2412" x="496.5" y="350"/><rect fill="#F1F1F1" height="10" style="stroke:#181818;stroke-width:0.5;" width="15" x="613.7412" y="355"/><rect fill="#F1F1F1" height="2" style="stroke:#181818;stroke-width:0.5;" width="4" x="611.7412" y="357"/><rect fill="#F1F1F1" height="2" style="stroke:#181818;stroke-width:0.5;" width="4" x="611.7412" y="361"/><text fill="#000000" font-family="sans-serif" font-size="14" lengthAdjust="spacing" textLength="97.2412" x="511.5" y="384.5332">junit-platform-jfr</text></g><!--entity launcher--><g class="entity" data-entity="launcher" data-source-line="23" data-uid="ent0015" id="entity_launcher"><rect fill="#F1F1F1" height="47.6094" rx="2.5" ry="2.5" style="stroke:#181818;stroke-width:0.5;" width="179.2822" x="455.5" y="458"/><rect fill="#F1F1F1" height="10" style="stroke:#181818;stroke-width:0.5;" width="15" x="614.7822" y="463"/><rect fill="#F1F1F1" height="2" style="stroke:#181818;stroke-width:0.5;" width="4" x="612.7822" y="465"/><rect fill="#F1F1F1" height="2" style="stroke:#181818;stroke-width:0.5;" width="4" x="612.7822" y="469"/><text fill="#000000" font-family="sans-serif" font-size="14" lengthAdjust="spacing" textLength="139.2822" x="470.5" y="492.5332">junit-platform-launcher</text></g><!--entity reporting--><g class="entity" data-entity="reporting" data-source-line="24" data-uid="ent0016" id="entity_reporting"><rect fill="#F1F1F1" height="47.6094" rx="2.5" ry="2.5" style="stroke:#181818;stroke-width:0.5;" width="180.834" x="45.5" y="350"/><rect fill="#F1F1F1" height="10" style="stroke:#181818;stroke-width:0.5;" width="15" x="206.334" y="355"/><rect fill="#F1F1F1" height="2" style="stroke:#181818;stroke-width:0.5;" width="4" x="204.334" y="357"/><rect fill="#F1F1F1" height="2" style="stroke:#181818;stroke-width:0.5;" width="4" x="204.334" y="361"/><text fill="#000000" font-family="sans-serif" font-size="14" lengthAdjust="spacing" textLength="140.834" x="60.5" y="384.5332">junit-platform-reporting</text></g><!--entity runner--><g class="entity" data-entity="runner" data-source-line="25" data-uid="ent0017" id="entity_runner"><rect fill="#F1F1F1" height="47.6094" rx="2.5" ry="2.5" style="stroke:#181818;stroke-width:0.5;" width="166.0479" x="723" y="188"/><rect fill="#F1F1F1" height="10" style="stroke:#181818;stroke-width:0.5;" width="15" x="869.0479" y="193"/><rect fill="#F1F1F1" height="2" style="stroke:#181818;stroke-width:0.5;" width="4" x="867.0479" y="195"/><rect fill="#F1F1F1" height="2" style="stroke:#181818;stroke-width:0.5;" width="4" x="867.0479" y="199"/><text fill="#000000" font-family="sans-serif" font-size="14" lengthAdjust="spacing" textLength="126.0479" x="738" y="222.5332">junit-platform-runner</text></g><!--entity suite--><g class="entity" data-entity="suite" data-source-line="26" data-uid="ent0018" id="entity_suite"><rect fill="#F1F1F1" height="47.6094" rx="2.5" ry="2.5" style="stroke:#181818;stroke-width:0.5;" width="155.1514" x="639.5" y="42"/><rect fill="#F1F1F1" height="10" style="stroke:#181818;stroke-width:0.5;" width="15" x="774.6514" y="47"/><rect fill="#F1F1F1" height="2" style="stroke:#181818;stroke-width:0.5;" width="4" x="772.6514" y="49"/><rect fill="#F1F1F1" height="2" style="stroke:#181818;stroke-width:0.5;" width="4" x="772.6514" y="53"/><text fill="#000000" font-family="sans-serif" font-size="14" lengthAdjust="spacing" textLength="115.1514" x="654.5" y="76.5332">junit-platform-suite</text></g><!--entity suite_api--><g class="entity" data-entity="suite_api" data-source-line="27" data-uid="ent0019" id="entity_suite_api"><rect fill="#F1F1F1" height="47.6094" rx="2.5" ry="2.5" style="stroke:#181818;stroke-width:0.5;" width="178.4961" x="694" y="458"/><rect fill="#F1F1F1" height="10" style="stroke:#181818;stroke-width:0.5;" width="15" x="852.4961" y="463"/><rect fill="#F1F1F1" height="2" style="stroke:#181818;stroke-width:0.5;" width="4" x="850.4961" y="465"/><rect fill="#F1F1F1" height="2" style="stroke:#181818;stroke-width:0.5;" width="4" x="850.4961" y="469"/><text fill="#000000" font-family="sans-serif" font-size="14" lengthAdjust="spacing" textLength="138.4961" x="709" y="492.5332">junit-platform-suite-api</text></g><!--entity suite_commons--><g class="entity" data-entity="suite_commons" data-source-line="28" data-uid="ent0020" id="entity_suite_commons"><rect fill="#F1F1F1" height="47.6094" rx="2.5" ry="2.5" style="stroke:#181818;stroke-width:0.5;" width="220.4961" x="669" y="350"/><rect fill="#F1F1F1" height="10" style="stroke:#181818;stroke-width:0.5;" width="15" x="869.4961" y="355"/><rect fill="#F1F1F1" height="2" style="stroke:#181818;stroke-width:0.5;" width="4" x="867.4961" y="357"/><rect fill="#F1F1F1" height="2" style="stroke:#181818;stroke-width:0.5;" width="4" x="867.4961" y="361"/><text fill="#000000" font-family="sans-serif" font-size="14" lengthAdjust="spacing" textLength="180.4961" x="684" y="384.5332">junit-platform-suite-commons</text></g><!--entity suite_engine--><g class="entity" data-entity="suite_engine" data-source-line="29" data-uid="ent0021" id="entity_suite_engine"><rect fill="#F1F1F1" height="47.6094" rx="2.5" ry="2.5" style="stroke:#181818;stroke-width:0.5;" width="201.8545" x="486" y="188"/><rect fill="#F1F1F1" height="10" style="stroke:#181818;stroke-width:0.5;" width="15" x="667.8545" y="193"/><rect fill="#F1F1F1" height="2" style="stroke:#181818;stroke-width:0.5;" width="4" x="665.8545" y="195"/><rect fill="#F1F1F1" height="2" style="stroke:#181818;stroke-width:0.5;" width="4" x="665.8545" y="199"/><text fill="#000000" font-family="sans-serif" font-size="14" lengthAdjust="spacing" textLength="161.8545" x="501" y="222.5332">junit-platform-suite-engine</text></g><!--entity testkit--><g class="entity" data-entity="testkit" data-source-line="30" data-uid="ent0022" id="entity_testkit"><rect fill="#F1F1F1" height="47.6094" rx="2.5" ry="2.5" style="stroke:#181818;stroke-width:0.5;" width="162.1445" x="262" y="350"/><rect fill="#F1F1F1" height="10" style="stroke:#181818;stroke-width:0.5;" width="15" x="404.1445" y="355"/><rect fill="#F1F1F1" height="2" style="stroke:#181818;stroke-width:0.5;" width="4" x="402.1445" y="357"/><rect fill="#F1F1F1" height="2" style="stroke:#181818;stroke-width:0.5;" width="4" x="402.1445" y="361"/><text fill="#000000" font-family="sans-serif" font-size="14" lengthAdjust="spacing" textLength="122.1445" x="277" y="384.5332">junit-platform-testkit</text></g><!--entity junit4--><g class="entity" data-entity="junit4" data-source-line="34" data-uid="ent0024" id="entity_junit4"><rect fill="#F1F1F1" height="47.6094" rx="2.5" ry="2.5" style="stroke:#181818;stroke-width:0.5;" width="95.2549" x="1149.5" y="582"/><rect fill="#F1F1F1" height="10" style="stroke:#181818;stroke-width:0.5;" width="15" x="1224.7549" y="587"/><rect fill="#F1F1F1" height="2" style="stroke:#181818;stroke-width:0.5;" width="4" x="1222.7549" y="589"/><rect fill="#F1F1F1" height="2" style="stroke:#181818;stroke-width:0.5;" width="4" x="1222.7549" y="593"/><text fill="#000000" font-family="sans-serif" font-size="14" lengthAdjust="spacing" textLength="55.2549" x="1164.5" y="616.5332">junit:junit</text></g><!--entity opentest4j--><g class="entity" data-entity="opentest4j" data-source-line="38" data-uid="ent0026" id="entity_opentest4j"><rect fill="#F1F1F1" height="47.6094" rx="2.5" ry="2.5" style="stroke:#181818;stroke-width:0.5;" width="104.6064" x="634.5" y="859"/><rect fill="#F1F1F1" height="10" style="stroke:#181818;stroke-width:0.5;" width="15" x="719.1064" y="864"/><rect fill="#F1F1F1" height="2" style="stroke:#181818;stroke-width:0.5;" width="4" x="717.1064" y="866"/><rect fill="#F1F1F1" height="2" style="stroke:#181818;stroke-width:0.5;" width="4" x="717.1064" y="870"/><text fill="#000000" font-family="sans-serif" font-size="14" lengthAdjust="spacing" textLength="64.6064" x="649.5" y="893.5332">opentest4j</text></g><!--entity otr_tooling_spi--><g class="entity" data-entity="otr_tooling_spi" data-source-line="42" data-uid="ent0028" id="entity_otr_tooling_spi"><rect fill="#F1F1F1" height="47.6094" rx="2.5" ry="2.5" style="stroke:#181818;stroke-width:0.5;" width="226.7646" x="22.5" y="859"/><rect fill="#F1F1F1" height="10" style="stroke:#181818;stroke-width:0.5;" width="15" x="229.2646" y="864"/><rect fill="#F1F1F1" height="2" style="stroke:#181818;stroke-width:0.5;" width="4" x="227.2646" y="866"/><rect fill="#F1F1F1" height="2" style="stroke:#181818;stroke-width:0.5;" width="4" x="227.2646" y="870"/><text fill="#000000" font-family="sans-serif" font-size="14" lengthAdjust="spacing" textLength="186.7646" x="37.5" y="893.5332">open-test-reporting-tooling-spi</text></g><!--entity apiguardian--><g class="entity" data-entity="apiguardian" data-source-line="46" data-uid="ent0030" id="entity_apiguardian"><rect fill="#F1F1F1" height="47.6094" rx="2.5" ry="2.5" style="stroke:#181818;stroke-width:0.5;" width="136.5166" x="1965.5" y="42"/><rect fill="#F1F1F1" height="10" style="stroke:#181818;stroke-width:0.5;" width="15" x="2082.0166" y="47"/><rect fill="#F1F1F1" height="2" style="stroke:#181818;stroke-width:0.5;" width="4" x="2080.0166" y="49"/><rect fill="#F1F1F1" height="2" style="stroke:#181818;stroke-width:0.5;" width="4" x="2080.0166" y="53"/><text fill="#000000" font-family="sans-serif" font-size="14" lengthAdjust="spacing" textLength="96.5166" x="1980.5" y="76.5332">apiguardian-api</text></g><g class="entity" data-entity="GMN31" data-source-line="48" data-uid="ent0032" id="entity_GMN31"><path d="M1946,150 L1946,274.4609 A0,0 0 0 0 1946,274.4609 L2122.397,274.4609 A0,0 0 0 0 2122.397,274.4609 L2122.397,160 L2112.397,150 L2038,150 L2034,90.14 L2030,150 L1946,150 A0,0 0 0 0 1946,150" fill="#FFFFFF" style="stroke:#181818;stroke-width:0.5;"/><path d="M2112.397,150 L2112.397,160 L2122.397,160 L2112.397,150" fill="#FFFFFF" style="stroke:#181818;stroke-width:0.5;"/><text fill="#000000" font-family="sans-serif" font-size="13" lengthAdjust="spacing" textLength="105.4854" x="1952" y="168.4951">All artifacts except</text><text fill="#000000" font-family="sans-serif" font-size="13" lengthAdjust="spacing" textLength="140.2134" x="1952" y="184.8467">opentest4j and junit:junit</text><text fill="#000000" font-family="sans-serif" font-size="13" lengthAdjust="spacing" textLength="155.397" x="1952" y="201.1982">have a dependency on this</text><text fill="#000000" font-family="sans-serif" font-size="13" lengthAdjust="spacing" textLength="139.4707" x="1952" y="217.5498">artifact. The edges have</text><text fill="#000000" font-family="sans-serif" font-size="13" lengthAdjust="spacing" textLength="128.6162" x="1952" y="233.9014">been omitted from this</text><text fill="#000000" font-family="sans-serif" font-size="13" lengthAdjust="spacing" textLength="132.958" x="1952" y="250.2529">diagram for the sake of</text><text fill="#000000" font-family="sans-serif" font-size="13" lengthAdjust="spacing" textLength="62.8672" x="1952" y="266.6045">readability.</text></g><!--link jupiter to jupiter_api--><g class="link" data-entity-1="jupiter" data-entity-2="jupiter_api" data-source-line="58" data-uid="lnk34" id="link_jupiter_jupiter_api"><path d="M1809.61,236.19 C1831.93,252.64 1858.5,276.91 1871,306 C1891.35,353.37 1904.4,382.73 1871,422 C1833.67,465.89 1674.5172,477.0379 1580.3472,479.8979" fill="none" id="jupiter-to-jupiter_api" style="stroke:#181818;stroke-width:1;stroke-dasharray:7.0,7.0;"/><polygon fill="#181818" points="1574.35,480.08,1583.4673,483.8049,1579.3477,479.9282,1583.2244,475.8086,1574.35,480.08" style="stroke:#181818;stroke-width:1;"/></g><!--link jupiter to jupiter_params--><g class="link" data-entity-1="jupiter" data-entity-2="jupiter_params" data-source-line="59" data-uid="lnk35" id="link_jupiter_jupiter_params"><path d="M1773,236.27 C1773,266.69 1773,313.66 1773,343.97" fill="none" id="jupiter-to-jupiter_params" style="stroke:#181818;stroke-width:1;stroke-dasharray:7.0,7.0;"/><polygon fill="#181818" points="1773,349.97,1777,340.97,1773,344.97,1769,340.97,1773,349.97" style="stroke:#181818;stroke-width:1;"/></g><!--link jupiter to jupiter_engine--><g class="link" data-entity-1="jupiter" data-entity-2="jupiter_engine" data-source-line="60" data-uid="lnk36" id="link_jupiter_jupiter_engine"><path d="M1718.78,221.26 C1648.19,233.38 1522.12,259.7 1423,306 C1398.31,317.53 1377.9493,331.7995 1359.7593,346.2395" fill="none" id="jupiter-to-jupiter_engine" style="stroke:#181818;stroke-width:1;stroke-dasharray:7.0,7.0;"/><polygon fill="#181818" points="1355.06,349.97,1364.5959,347.5071,1358.9761,346.8612,1359.6219,341.2414,1355.06,349.97" style="stroke:#181818;stroke-width:1;"/></g><!--link jupiter_api to opentest4j--><g class="link" data-entity-1="jupiter_api" data-entity-2="opentest4j" data-source-line="62" data-uid="lnk37" id="link_jupiter_api_opentest4j"><path d="M1496.21,506.21 C1476.45,542.85 1433.23,614.02 1377,654 C1170.08,801.13 868.0093,856.989 745.7293,874.509" fill="none" id="jupiter_api-to-opentest4j" style="stroke:#181818;stroke-width:1;stroke-dasharray:7.0,7.0;"/><polygon fill="#181818" points="739.79,875.36,749.2663,878.0431,744.7395,874.6509,748.1317,870.124,739.79,875.36" style="stroke:#181818;stroke-width:1;"/></g><!--link jupiter_api to commons--><g class="link" data-entity-1="jupiter_api" data-entity-2="commons" data-source-line="63" data-uid="lnk38" id="link_jupiter_api_commons"><path d="M1483.31,506.16 C1441.31,544.08 1351.64,618.71 1261,654 C1151.26,696.72 1021.1459,709.008 932.2759,712.298" fill="none" id="jupiter_api-to-commons" style="stroke:#181818;stroke-width:1;stroke-dasharray:7.0,7.0;"/><polygon fill="#181818" points="926.28,712.52,935.4218,716.1843,931.2766,712.335,935.1259,708.1898,926.28,712.52" style="stroke:#181818;stroke-width:1;"/></g><!--link jupiter_engine to engine--><g class="link" data-entity-1="jupiter_engine" data-entity-2="engine" data-source-line="65" data-uid="lnk39" id="link_jupiter_engine_engine"><path d="M1278.27,398.11 C1183.39,442.19 982.9913,535.3118 888.1413,579.3818" fill="none" id="jupiter_engine-to-engine" style="stroke:#181818;stroke-width:1;stroke-dasharray:7.0,7.0;"/><polygon fill="#181818" points="882.7,581.91,892.5475,581.7453,887.2345,579.8032,889.1765,574.4901,882.7,581.91" style="stroke:#181818;stroke-width:1;"/></g><!--link jupiter_engine to jupiter_api--><g class="link" data-entity-1="jupiter_engine" data-entity-2="jupiter_api" data-source-line="66" data-uid="lnk40" id="link_jupiter_engine_jupiter_api"><path d="M1367.06,398 C1397.15,415.72 1433.3895,437.066 1463.5395,454.816" fill="none" id="jupiter_engine-to-jupiter_api" style="stroke:#181818;stroke-width:1;stroke-dasharray:7.0,7.0;"/><polygon fill="#181818" points="1468.71,457.86,1462.9836,449.847,1464.4012,455.3233,1458.9249,456.741,1468.71,457.86" style="stroke:#181818;stroke-width:1;"/></g><!--link jupiter_params to jupiter_api--><g class="link" data-entity-1="jupiter_params" data-entity-2="jupiter_api" data-source-line="68" data-uid="lnk41" id="link_jupiter_params_jupiter_api"><path d="M1727.59,398.03 C1711.19,406.01 1692.43,414.77 1675,422 C1642.2,435.61 1610.6797,447.0158 1579.7297,457.5558" fill="none" id="jupiter_params-to-jupiter_api" style="stroke:#181818;stroke-width:1;stroke-dasharray:7.0,7.0;"/><polygon fill="#181818" points="1574.05,459.49,1583.859,460.3751,1578.7831,457.8782,1581.2801,452.8022,1574.05,459.49" style="stroke:#181818;stroke-width:1;"/></g><!--link jupiter_migration_support to jupiter_api--><g class="link" data-entity-1="jupiter_migration_support" data-entity-2="jupiter_api" data-source-line="69" data-uid="lnk42" id="link_jupiter_migration_support_jupiter_api"><path d="M1540.1,398 C1533.27,415.66 1526.044,434.3438 1519.184,452.0838" fill="none" id="jupiter_migration_support-to-jupiter_api" style="stroke:#181818;stroke-width:1;stroke-dasharray:7.0,7.0;"/><polygon fill="#181818" points="1517.02,457.68,1523.9968,450.7284,1518.8233,453.0165,1516.5353,447.8431,1517.02,457.68" style="stroke:#181818;stroke-width:1;"/></g><!--link jupiter_migration_support to junit4--><g class="link" data-entity-1="jupiter_migration_support" data-entity-2="junit4" data-source-line="70" data-uid="lnk43" id="link_jupiter_migration_support_junit4"><path d="M1513.64,398.11 C1446.17,442.19 1304.8129,534.5582 1237.3629,578.6282" fill="none" id="jupiter_migration_support-to-junit4" style="stroke:#181818;stroke-width:1;stroke-dasharray:7.0,7.0;"/><polygon fill="#181818" points="1232.34,581.91,1242.0622,580.3359,1236.5258,579.1751,1237.6865,573.6386,1232.34,581.91" style="stroke:#181818;stroke-width:1;"/></g><!--link console to launcher--><g class="link" data-entity-1="console" data-entity-2="launcher" data-source-line="72" data-uid="lnk44" id="link_console_launcher"><path d="M332.27,236.15 C370.34,250.64 413.37,272.98 442,306 C477.45,346.89 449.57,376.59 479,422 C487.78,435.54 495.8418,444.0696 507.7418,453.9396" fill="none" id="console-to-launcher" style="stroke:#181818;stroke-width:1;stroke-dasharray:7.0,7.0;"/><polygon fill="#181818" points="512.36,457.77,507.9863,448.9456,508.5115,454.578,502.8791,455.1032,512.36,457.77" style="stroke:#181818;stroke-width:1;"/></g><!--link console to reporting--><g class="link" data-entity-1="console" data-entity-2="reporting" data-source-line="73" data-uid="lnk45" id="link_console_reporting"><path d="M233.42,236.27 C211.75,266.69 177.4921,314.7738 155.8921,345.0838" fill="none" id="console-to-reporting" style="stroke:#181818;stroke-width:1;stroke-dasharray:7.0,7.0;"/><polygon fill="#181818" points="152.41,349.97,160.8906,344.9621,155.3117,345.8982,154.3757,340.3193,152.41,349.97" style="stroke:#181818;stroke-width:1;"/></g><!--link launcher to engine--><g class="link" data-entity-1="launcher" data-entity-2="engine" data-source-line="75" data-uid="lnk46" id="link_launcher_engine"><path d="M599.51,506.09 C650.71,527.78 721.4054,557.7294 772.6954,579.4594" fill="none" id="launcher-to-engine" style="stroke:#181818;stroke-width:1;stroke-dasharray:7.0,7.0;"/><polygon fill="#181818" points="778.22,581.8,771.4935,574.606,773.6161,579.8495,768.3726,581.9722,778.22,581.8" style="stroke:#181818;stroke-width:1;"/></g><!--link jfr to launcher--><g class="link" data-entity-1="jfr" data-entity-2="launcher" data-source-line="77" data-uid="lnk47" id="link_jfr_launcher"><path d="M560.66,398 C557.33,415.66 553.8634,434.0442 550.5134,451.7842" fill="none" id="jfr-to-launcher" style="stroke:#181818;stroke-width:1;stroke-dasharray:7.0,7.0;"/><polygon fill="#181818" points="549.4,457.68,555.0006,449.5785,550.3278,452.7668,547.1395,448.0941,549.4,457.68" style="stroke:#181818;stroke-width:1;"/></g><!--link engine to opentest4j--><g class="link" data-entity-1="engine" data-entity-2="opentest4j" data-source-line="79" data-uid="lnk48" id="link_engine_opentest4j"><path d="M788.17,630.16 C765.14,644.36 738.69,664.68 723,690 C689.77,743.62 685.7681,814.6802 686.0981,852.8102" fill="none" id="engine-to-opentest4j" style="stroke:#181818;stroke-width:1;stroke-dasharray:7.0,7.0;"/><polygon fill="#181818" points="686.15,858.81,690.072,849.7757,686.1067,853.8102,682.0723,849.845,686.15,858.81" style="stroke:#181818;stroke-width:1;"/></g><!--link engine to commons--><g class="link" data-entity-1="engine" data-entity-2="commons" data-source-line="80" data-uid="lnk49" id="link_engine_commons"><path d="M833,630 C833,647.66 833,665.94 833,683.68" fill="none" id="engine-to-commons" style="stroke:#181818;stroke-width:1;stroke-dasharray:7.0,7.0;"/><polygon fill="#181818" points="833,689.68,837,680.68,833,684.68,829,680.68,833,689.68" style="stroke:#181818;stroke-width:1;"/></g><!--link reporting to launcher--><g class="link" data-entity-1="reporting" data-entity-2="launcher" data-source-line="82" data-uid="lnk50" id="link_reporting_launcher"><path d="M183.46,398.08 C202.28,406.53 224.33,415.59 245,422 C314.33,443.5 389.2754,457.9117 449.5654,467.5617" fill="none" id="reporting-to-launcher" style="stroke:#181818;stroke-width:1;stroke-dasharray:7.0,7.0;"/><polygon fill="#181818" points="455.49,468.51,447.2353,463.1378,450.5528,467.7198,445.9709,471.0373,455.49,468.51" style="stroke:#181818;stroke-width:1;"/></g><!--link reporting to otr_tooling_spi--><g class="link" data-entity-1="reporting" data-entity-2="otr_tooling_spi" data-source-line="83" data-uid="lnk51" id="link_reporting_otr_tooling_spi"><path d="M136,398.18 C136,439.66 136,529.33 136,605 C136,605 136,605 136,715 C136,766.32 136,820.51 136,852.77" fill="none" id="reporting-to-otr_tooling_spi" style="stroke:#181818;stroke-width:1;stroke-dasharray:7.0,7.0;"/><polygon fill="#181818" points="136,858.77,140,849.77,136,853.77,132,849.77,136,858.77" style="stroke:#181818;stroke-width:1;"/></g><!--link runner to suite_commons--><g class="link" data-entity-1="runner" data-entity-2="suite_commons" data-source-line="85" data-uid="lnk52" id="link_runner_suite_commons"><path d="M802.07,236.27 C796.94,266.69 788.9975,313.7435 783.8875,344.0535" fill="none" id="runner-to-suite_commons" style="stroke:#181818;stroke-width:1;stroke-dasharray:7.0,7.0;"/><polygon fill="#181818" points="782.89,349.97,788.3305,341.7602,783.7212,345.0396,780.4419,340.4303,782.89,349.97" style="stroke:#181818;stroke-width:1;"/></g><!--link runner to junit4--><g class="link" data-entity-1="runner" data-entity-2="junit4" data-source-line="86" data-uid="lnk53" id="link_runner_junit4"><path d="M889.03,223.98 C982.12,238.08 1124.71,265.64 1160,306 C1229.72,385.73 1213.3914,520.5119 1203.0614,575.8319" fill="none" id="runner-to-junit4" style="stroke:#181818;stroke-width:1;stroke-dasharray:7.0,7.0;"/><polygon fill="#181818" points="1201.96,581.73,1207.5441,573.6172,1202.8778,576.815,1199.68,572.1487,1201.96,581.73" style="stroke:#181818;stroke-width:1;"/></g><!--link suite to suite_api--><g class="link" data-entity-1="suite" data-entity-2="suite_api" data-source-line="88" data-uid="lnk54" id="link_suite_suite_api"><path d="M794.84,77.63 C835.52,87.57 881.94,106.81 907,144 C976.04,246.47 972.98,317.54 907,422 C897.07,437.72 887.0127,446.5901 870.4127,455.1501" fill="none" id="suite-to-suite_api" style="stroke:#181818;stroke-width:1;stroke-dasharray:7.0,7.0;"/><polygon fill="#181818" points="865.08,457.9,874.9124,457.3303,869.5239,455.6084,871.2458,450.22,865.08,457.9" style="stroke:#181818;stroke-width:1;"/></g><!--link suite to suite_engine--><g class="link" data-entity-1="suite" data-entity-2="suite_engine" data-source-line="89" data-uid="lnk55" id="link_suite_suite_engine"><path d="M696.11,90.14 C671.85,117.01 636.0907,156.6164 611.8507,183.4664" fill="none" id="suite-to-suite_engine" style="stroke:#181818;stroke-width:1;stroke-dasharray:7.0,7.0;"/><polygon fill="#181818" points="607.83,187.92,616.83,183.9201,611.1805,184.2087,610.8919,178.5592,607.83,187.92" style="stroke:#181818;stroke-width:1;"/></g><!--link suite_engine to suite_commons--><g class="link" data-entity-1="suite_engine" data-entity-2="suite_commons" data-source-line="91" data-uid="lnk56" id="link_suite_engine_suite_commons"><path d="M614.92,236.27 C651.42,266.69 710.3808,315.8188 746.7508,346.1288" fill="none" id="suite_engine-to-suite_commons" style="stroke:#181818;stroke-width:1;stroke-dasharray:7.0,7.0;"/><polygon fill="#181818" points="751.36,349.97,747.007,341.1353,747.519,346.769,741.8853,347.281,751.36,349.97" style="stroke:#181818;stroke-width:1;"/></g><!--link suite_commons to launcher--><g class="link" data-entity-1="suite_commons" data-entity-2="launcher" data-source-line="93" data-uid="lnk57" id="link_suite_commons_launcher"><path d="M728.23,398 C689.11,415.72 640.7355,437.6345 601.5455,455.3845" fill="none" id="suite_commons-to-launcher" style="stroke:#181818;stroke-width:1;stroke-dasharray:7.0,7.0;"/><polygon fill="#181818" points="596.08,457.86,605.9286,457.7905,600.6346,455.7971,602.628,450.5031,596.08,457.86" style="stroke:#181818;stroke-width:1;"/></g><!--link suite_commons to suite_api--><g class="link" data-entity-1="suite_commons" data-entity-2="suite_api" data-source-line="94" data-uid="lnk58" id="link_suite_commons_suite_api"><path d="M779.87,398 C780.53,415.66 781.2236,433.9443 781.8936,451.6843" fill="none" id="suite_commons-to-suite_api" style="stroke:#181818;stroke-width:1;stroke-dasharray:7.0,7.0;"/><polygon fill="#181818" points="782.12,457.68,785.7775,448.5354,781.9313,452.6836,777.7832,448.8374,782.12,457.68" style="stroke:#181818;stroke-width:1;"/></g><!--link testkit to opentest4j--><g class="link" data-entity-1="testkit" data-entity-2="opentest4j" data-source-line="96" data-uid="lnk59" id="link_testkit_opentest4j"><path d="M349.62,398.29 C360.74,439.57 382,528.45 382,605 C382,605 382,605 382,715 C382,828.65 540.9816,864.675 628.2716,876.195" fill="none" id="testkit-to-opentest4j" style="stroke:#181818;stroke-width:1;stroke-dasharray:7.0,7.0;"/><polygon fill="#181818" points="634.22,876.98,625.8207,871.8368,629.263,876.3258,624.774,879.7681,634.22,876.98" style="stroke:#181818;stroke-width:1;"/></g><!--link testkit to launcher--><g class="link" data-entity-1="testkit" data-entity-2="launcher" data-source-line="97" data-uid="lnk60" id="link_testkit_launcher"><path d="M386.83,398 C420.6,415.72 461.7566,437.323 495.5966,455.073" fill="none" id="testkit-to-launcher" style="stroke:#181818;stroke-width:1;stroke-dasharray:7.0,7.0;"/><polygon fill="#181818" points="500.91,457.86,494.7979,450.1372,496.4821,455.5375,491.0818,457.2217,500.91,457.86" style="stroke:#181818;stroke-width:1;"/></g><!--link vintage_engine to engine--><g class="link" data-entity-1="vintage_engine" data-entity-2="engine" data-source-line="99" data-uid="lnk61" id="link_vintage_engine_engine"><path d="M1039.68,398.32 C995.48,442.52 904.2626,533.7374 860.2826,577.7174" fill="none" id="vintage_engine-to-engine" style="stroke:#181818;stroke-width:1;stroke-dasharray:7.0,7.0;"/><polygon fill="#181818" points="856.04,581.96,865.2324,578.4245,859.5755,578.4245,859.5755,572.7676,856.04,581.96" style="stroke:#181818;stroke-width:1;"/></g><!--link vintage_engine to junit4--><g class="link" data-entity-1="vintage_engine" data-entity-2="junit4" data-source-line="100" data-uid="lnk62" id="link_vintage_engine_junit4"><path d="M1076.59,398.32 C1102.34,442.52 1154.929,532.796 1180.559,576.776" fill="none" id="vintage_engine-to-junit4" style="stroke:#181818;stroke-width:1;stroke-dasharray:7.0,7.0;"/><polygon fill="#181818" points="1183.58,581.96,1182.5044,572.17,1181.0625,577.64,1175.5925,576.1981,1183.58,581.96" style="stroke:#181818;stroke-width:1;"/></g><!--SRC=[bLMnZjim3Dtr5S9rjgTC7Gxeqg53ftOw70B5fXqbjcH8zBM7elzUIfPboLOEQ0P7Uk-HePvenjwbceGH8__3E7rQwCGyu5UjyBiOWLkXR6N1o8xzPMmIpLtqmBNfwzki9D9paWWcHBzui0hWAnUMXtM1hiGaKycPzYKPg5ugo9GBL1BxizXCl40byIXx8r1gPUTfqWQpi4YU0risu4qgT4XcG03JqWEqbbxCDGq2Est6FDcALeqUHwhLfmlh1pfbzG11vzT5NLBTqT2ekdNX8ZjJv0Sng-OQRdlT59K6d8rIzLuQTsNjh5J8kIoBAZlJLNcHNptMn5xpktsdxRIfpul-8xUNcCJB9UG3Hn4itkNIRM6TziFJjvyavwUdh0q- -sVeK5gTzYsa9r0ks-csnct8wsDn7UyX3VCrRXTMeTQ3-xR1Hetc7B0pOVlqv6y_2zDAeTQi2HGl8y6yI6a4Vj68UkIwIsd-wTTrlM3t-J8CN51fdMYGklTt0nD6Cd52g9OdzaN9LRm15pJjIDg2QjwvLXolqaR5chtcFwx0eUt1-gWek00ehaU922tl39MSnLFLlHkhTED4k45w9s-wo1iGhRZ8GU9xxK4gn9tVMRaErRf-pePZ2G_JhKI55cH92kATOdDeJpx7oSBoD0iPKXwel4wM5_Ve7CSH-rzAB_Ll0WjJpeV74PI2sx1XAy-Jyp0QRdamsqwT-vKSEJgrlK9PZXGEUNQl3Ljccm_B9qqaabDwHQ9r1ksnzK3fhf2UPTkyx2Er_HmBy-heoqQaBkR_UbaF7QXuq7y0]--></g></svg>